# xmcd CD database file
#
# Track frame offsets:
#	182
#	17060
#	33607
#	48907
#	64560
#	79167
#	95927
#	112020
#	127920
#	143780
#	160550
#	179950
#	195187
#	213125
#
# Disc length: 2980 seconds
#
# Revision: 2
# Processed by: cddbd v1.5.2PL0 Copyright (c) Steve Scherf et al.
# Submitted via: CDex 1.51
#
DISCID=bd0ba20e
DTITLE=Chrystian and Ralf - Chrystian e Ralf
DYEAR=1993
DGENRE=Sertanejo
TTITLE0=Louco Por Ela
TTITLE1=Minha Vida Sem Ela
TTITLE2=Lock, Stock and Teardrops
TTITLE3=Cheiro de Shampoo
TTITLE4=Vazio da Solidão
TTITLE5=Não Tire o Nosso Neném
TTITLE6=Últimas Fronteiras
TTITLE7=Loucura Demais
TTITLE8=É Desse Jeito Que a Gente Se Ama
TTITLE9=Menina
TTITLE10=Pra Ficar Com Você
TTITLE11=Se Ligue em Mim
TTITLE12=Amor da Minha Vida
TTITLE13=Ladrão de Mulher
EXTD=YEAR: 1993
EXTT0=
EXTT1=
EXTT2=
EXTT3=
EXTT4=
EXTT5=
EXTT6=
EXTT7=
EXTT8=
EXTT9=
EXTT10=
EXTT11=
EXTT12=
EXTT13=
PLAYORDER=
